<?xml version="1.0" encoding="UTF-8"?>
<svg version="1.1" xmlns="http://www.w3.org/2000/svg" width="512" height="512">
<path d="M0 0 C12.20699811 10.10401032 20.26625371 24.29525023 28.84765625 37.3828125 C31.55594632 41.50888928 34.27143604 45.6300937 36.99612427 49.74536133 C38.12463399 51.45402855 39.24592169 53.16727395 40.36694336 54.88085938 C50.79900707 70.65001081 63.4183161 85.47290771 77.78515625 97.8203125 C95.15960117 112.85522821 108.88267386 131.30996389 115.84765625 153.3828125 C116.23953125 154.61773437 116.63140625 155.85265625 117.03515625 157.125 C122.97979059 177.72115798 121.64132357 199.99593788 111.32080078 218.88745117 C101.74922747 235.16941321 85.54922535 247.3569948 67.32421875 252.34765625 C44.31559624 257.49494603 22.03206929 251.75616241 -0.27734375 245.8828125 C-18.15587805 241.19391973 -35.55256606 236.82580458 -54.15234375 236.9453125 C-55.25578125 236.92533203 -56.35921875 236.90535156 -57.49609375 236.88476562 C-74.56572988 236.89455326 -91.28741034 242.63768068 -107.62329102 247.10375977 C-123.06355363 251.31360103 -138.22423627 254.97849181 -154.33984375 254.8203125 C-155.45770264 254.81201416 -156.57556152 254.80371582 -157.72729492 254.79516602 C-166.14665933 254.62299213 -173.35402967 253.76679594 -181.15234375 250.3828125 C-182.23 249.92003906 -183.30765625 249.45726562 -184.41796875 248.98046875 C-200.99162137 240.94892382 -214.09219568 226.2893445 -220.15625 208.89453125 C-227.69481881 182.31738082 -223.31733273 156.95236279 -210.83984375 132.6328125 C-207.16085123 126.10841182 -202.88284649 120.17854158 -198.15234375 114.3828125 C-197.41274414 113.47281494 -197.41274414 113.47281494 -196.65820312 112.54443359 C-190.5477842 105.09477057 -184.42891311 98.41439532 -176.78125 92.4921875 C-158.42587188 77.76424666 -144.92259225 56.79515566 -131.55859375 37.68359375 C-125.60038229 29.18314823 -119.23960244 21.08051369 -112.58886719 13.10986328 C-111.38118101 11.65793057 -110.19050098 10.19187626 -109.00390625 8.72265625 C-80.89094232 -24.90614237 -33.69255917 -25.3152804 0 0 Z " fill="#000000" transform="translate(308.15234375,227.6171875)"/>
<path d="M0 0 C18.9173404 16.23788115 29.86930224 39.73627022 31.89453125 64.51953125 C33.25702759 89.22053353 29.21741976 113.22191072 12.89453125 132.51953125 C5.34283286 140.71241158 -4.76285584 145.86244781 -15.8828125 146.73828125 C-33.98043716 147.29728124 -48.13204731 138.736165 -61.03125 126.7265625 C-80.38868947 106.56812553 -84.87784543 78.07422987 -84.390625 51.4296875 C-83.74790419 31.5107208 -77.3864925 14.12334005 -63.54296875 -0.48046875 C-44.88159662 -17.85188428 -19.07964537 -15.23971674 0 0 Z " fill="#000000" transform="translate(204.10546875,42.48046875)"/>
<path d="M0 0 C13.45195641 9.57557789 22.65324652 25.34480898 25.58984375 41.49609375 C30.06355156 71.27775842 26.15084226 100.69711612 8.58984375 125.49609375 C8.05875 126.27339844 7.52765625 127.05070313 6.98046875 127.8515625 C-1.60327587 139.72574255 -14.14931511 148.11893008 -28.41015625 151.49609375 C-43.25678274 152.66142529 -53.88101078 150.25321597 -65.46875 140.8203125 C-79.06461103 128.44357351 -86.41473099 107.60127706 -87.59472656 89.6953125 C-88.76979806 63.35342191 -83.80240265 34.40458986 -65.46875 14.1953125 C-59.16319226 7.50033564 -52.64025644 1.74467054 -44.41015625 -2.50390625 C-43.59804688 -2.93445312 -42.7859375 -3.365 -41.94921875 -3.80859375 C-28.27434112 -9.909693 -12.37825322 -7.72386951 0 0 Z " fill="#000000" transform="translate(365.41015625,36.50390625)"/>
<path d="M0 0 C19.64939068 15.50545494 30.6743012 37.40663551 34.453125 61.9375 C34.72925302 64.5952322 34.88901748 67.22452061 34.984375 69.89453125 C35.0359375 70.82265625 35.0875 71.75078125 35.140625 72.70703125 C35.72127946 90.90087085 29.98821017 107.27401794 17.984375 120.89453125 C8.86034585 129.73454393 -2.59782892 132.18920795 -14.88305664 132.21142578 C-31.18171078 131.94778305 -45.4369762 124.02519661 -57.015625 112.89453125 C-73.33987621 94.69084322 -82.87383947 69.41060991 -82.26171875 44.92578125 C-80.66654113 25.27724416 -74.69557463 8.71192899 -59.3359375 -4.3828125 C-40.99174904 -18.00198272 -17.38939468 -12.14104111 0 0 Z " fill="#000000" transform="translate(94.015625,156.10546875)"/>
<path d="M0 0 C11.20515186 10.16165657 15.7844928 25.52772326 16.921875 40.23046875 C16.95152344 40.94976562 16.98117187 41.6690625 17.01171875 42.41015625 C17.07166016 43.73660156 17.07166016 43.73660156 17.1328125 45.08984375 C17.71176143 70.76793176 8.88558182 95.7074218 -8.67578125 114.66015625 C-21.72349281 126.97719596 -37.64717845 133.98338262 -55.5625 133.65625 C-66.48755364 132.87143999 -76.78660153 127.66385032 -84.265625 119.63671875 C-94.1843618 106.81658275 -98.7476958 92.90448459 -98.48828125 76.72265625 C-98.47619629 75.50167236 -98.46411133 74.28068848 -98.45166016 73.02270508 C-97.90778507 48.05554219 -89.3549278 26.53473994 -71.98828125 8.41015625 C-71.14265625 7.50265625 -70.29703125 6.59515625 -69.42578125 5.66015625 C-49.03635832 -13.16084953 -22.68765482 -18.14120926 0 0 Z " fill="#000000" transform="translate(482.98828125,155.58984375)"/>
</svg>
